<svg width="17" height="18" viewBox="0 0 17 18" fill="none" xmlns="http://www.w3.org/2000/svg">
<path d="M5.16667 13.2776H11.8333M7.68141 1.41429L2.02949 5.81023C1.65168 6.10408 1.46278 6.25101 1.32669 6.43501C1.20614 6.598 1.11633 6.78161 1.06169 6.97684C1 7.19723 1 7.43654 1 7.91517V13.9443C1 14.8777 1 15.3444 1.18166 15.7009C1.34144 16.0145 1.59641 16.2695 1.91002 16.4293C2.26654 16.6109 2.73325 16.6109 3.66667 16.6109H13.3333C14.2668 16.6109 14.7335 16.6109 15.09 16.4293C15.4036 16.2695 15.6586 16.0145 15.8183 15.7009C16 15.3444 16 14.8777 16 13.9443V7.91517C16 7.43654 16 7.19723 15.9383 6.97684C15.8837 6.78161 15.7939 6.598 15.6733 6.43501C15.5372 6.25101 15.3483 6.10408 14.9705 5.81023L9.31859 1.41429C9.02582 1.18658 8.87943 1.07273 8.71779 1.02896C8.57516 0.990346 8.42484 0.990346 8.28221 1.02896C8.12057 1.07273 7.97418 1.18658 7.68141 1.41429Z" stroke="#252525" stroke-width="2" stroke-linecap="round" stroke-linejoin="round"/>
</svg>
