<svg width="16" height="19" viewBox="0 0 16 19" fill="none" xmlns="http://www.w3.org/2000/svg">
<path d="M11 2.66667C11.775 2.66667 12.1625 2.66667 12.4804 2.75185C13.3431 2.98302 14.017 3.65689 14.2481 4.51962C14.3333 4.83754 14.3333 5.22502 14.3333 6V13.6667C14.3333 15.0668 14.3333 15.7669 14.0608 16.3016C13.8212 16.772 13.4387 17.1545 12.9683 17.3942C12.4335 17.6667 11.7335 17.6667 10.3333 17.6667H5C3.59987 17.6667 2.8998 17.6667 2.36502 17.3942C1.89462 17.1545 1.51217 16.772 1.27248 16.3016C1 15.7669 1 15.0668 1 13.6667V6C1 5.22502 1 4.83754 1.08519 4.51962C1.31635 3.65689 1.99022 2.98302 2.85295 2.75185C3.17087 2.66667 3.55836 2.66667 4.33333 2.66667M5.16667 11.8333L6.83333 13.5L10.5833 9.75M5.66667 4.33333H9.66667C10.1334 4.33333 10.3667 4.33333 10.545 4.24251C10.7018 4.16261 10.8293 4.03513 10.9092 3.87833C11 3.70007 11 3.46671 11 3V2.33333C11 1.86662 11 1.63327 10.9092 1.45501C10.8293 1.29821 10.7018 1.17072 10.545 1.09083C10.3667 1 10.1334 1 9.66667 1H5.66667C5.19996 1 4.9666 1 4.78834 1.09083C4.63154 1.17072 4.50406 1.29821 4.42416 1.45501C4.33333 1.63327 4.33333 1.86662 4.33333 2.33333V3C4.33333 3.46671 4.33333 3.70007 4.42416 3.87833C4.50406 4.03513 4.63154 4.16261 4.78834 4.24251C4.9666 4.33333 5.19996 4.33333 5.66667 4.33333Z" stroke="white" stroke-width="2" stroke-linecap="round" stroke-linejoin="round"/>
</svg>
