<svg width="15" height="19" viewBox="0 0 15 19" fill="none" xmlns="http://www.w3.org/2000/svg">
<path d="M9.08333 0.974609V4.41673C9.08333 4.88344 9.08333 5.11679 9.17416 5.29505C9.25406 5.45185 9.38154 5.57934 9.53834 5.65923C9.7166 5.75006 9.94996 5.75006 10.4167 5.75006H13.8588M4.08333 11.5833V14.0833M10.75 9.91667V14.0833M7.41667 7.83333V14.0833M14.0833 7.40685V13.4167C14.0833 14.8168 14.0833 15.5169 13.8108 16.0516C13.5712 16.522 13.1887 16.9045 12.7183 17.1442C12.1835 17.4167 11.4835 17.4167 10.0833 17.4167H4.75C3.34987 17.4167 2.6498 17.4167 2.11502 17.1442C1.64462 16.9045 1.26217 16.522 1.02248 16.0516C0.75 15.5169 0.75 14.8168 0.75 13.4167V4.75C0.75 3.34987 0.75 2.6498 1.02248 2.11502C1.26217 1.64462 1.64462 1.26217 2.11502 1.02248C2.6498 0.75 3.34987 0.75 4.75 0.75H7.42648C8.03796 0.75 8.34369 0.75 8.63141 0.819075C8.8865 0.880317 9.13036 0.981328 9.35405 1.1184C9.60634 1.273 9.82253 1.48919 10.2549 1.92157L12.9118 4.57843C13.3441 5.01081 13.5603 5.227 13.7149 5.47929C13.852 5.70297 13.953 5.94683 14.0143 6.20192C14.0833 6.48964 14.0833 6.79538 14.0833 7.40685Z" stroke="url(#paint0_linear_722_841)" stroke-width="1.5" stroke-linecap="round" stroke-linejoin="round"/>
<defs>
<linearGradient id="paint0_linear_722_841" x1="7.41667" y1="0.75" x2="7.41667" y2="17.4167" gradientUnits="userSpaceOnUse">
<stop stop-color="#005CDA"/>
<stop offset="1" stop-color="#001F4A"/>
</linearGradient>
</defs>
</svg>
