<svg width="18" height="17" viewBox="0 0 18 17" fill="none" xmlns="http://www.w3.org/2000/svg">
<path d="M8.25703 1.6864C8.4491 1.29728 8.54513 1.10272 8.67551 1.04056C8.78894 0.986479 8.92072 0.986479 9.03416 1.04056C9.16453 1.10272 9.26056 1.29728 9.45264 1.6864L11.2749 5.37804C11.3316 5.49291 11.3599 5.55035 11.4014 5.59495C11.438 5.63443 11.482 5.66643 11.5309 5.68915C11.5861 5.71482 11.6495 5.72408 11.7763 5.74261L15.8523 6.33839C16.2815 6.40113 16.4961 6.4325 16.5955 6.53733C16.6819 6.62854 16.7225 6.75388 16.7061 6.87845C16.6872 7.02162 16.5318 7.17295 16.221 7.47562L13.2727 10.3473C13.1808 10.4368 13.1348 10.4816 13.1052 10.5349C13.0789 10.582 13.0621 10.6338 13.0556 10.6874C13.0482 10.7479 13.0591 10.8111 13.0808 10.9376L13.7765 14.9937C13.8498 15.4215 13.8865 15.6354 13.8176 15.7624C13.7576 15.8728 13.6509 15.9503 13.5274 15.9732C13.3853 15.9995 13.1932 15.8985 12.8091 15.6965L9.16513 13.7802C9.05159 13.7205 8.99483 13.6906 8.93502 13.6789C8.88207 13.6685 8.8276 13.6685 8.77464 13.6789C8.71484 13.6906 8.65807 13.7205 8.54453 13.7802L4.90059 15.6965C4.51641 15.8985 4.32433 15.9995 4.18229 15.9732C4.05872 15.9503 3.95209 15.8728 3.8921 15.7624C3.82315 15.6354 3.85984 15.4215 3.93321 14.9937L4.62889 10.9376C4.65058 10.8111 4.66142 10.7479 4.65408 10.6874C4.64759 10.6338 4.63074 10.582 4.60449 10.5349C4.57484 10.4816 4.52888 10.4368 4.43697 10.3473L1.48862 7.47562C1.17787 7.17295 1.0225 7.02162 1.00359 6.87845C0.987139 6.75388 1.02778 6.62854 1.11419 6.53733C1.21351 6.4325 1.42813 6.40113 1.85735 6.33839L5.93341 5.74261C6.06017 5.72408 6.12355 5.71482 6.17875 5.68915C6.22762 5.66643 6.27162 5.63443 6.30831 5.59495C6.34974 5.55035 6.37809 5.49291 6.4348 5.37804L8.25703 1.6864Z" stroke="white" stroke-width="2" stroke-linecap="round" stroke-linejoin="round"/>
</svg>
