<svg width="19" height="19" viewBox="0 0 19 19" fill="none" xmlns="http://www.w3.org/2000/svg">
<path d="M9.33333 11.8333C10.714 11.8333 11.8333 10.714 11.8333 9.33333C11.8333 7.95262 10.714 6.83333 9.33333 6.83333C7.95262 6.83333 6.83333 7.95262 6.83333 9.33333C6.83333 10.714 7.95262 11.8333 9.33333 11.8333Z" stroke="#252525" stroke-width="2" stroke-linecap="round" stroke-linejoin="round"/>
<path d="M14.9394 11.6061C14.8385 11.8346 14.8085 12.088 14.853 12.3338C14.8976 12.5795 15.0147 12.8063 15.1894 12.9848L15.2348 13.0303C15.3757 13.171 15.4875 13.3381 15.5637 13.5221C15.64 13.706 15.6792 13.9032 15.6792 14.1023C15.6792 14.3014 15.64 14.4985 15.5637 14.6825C15.4875 14.8664 15.3757 15.0335 15.2348 15.1742C15.0941 15.3151 14.927 15.4269 14.7431 15.5031C14.5592 15.5794 14.362 15.6186 14.1629 15.6186C13.9638 15.6186 13.7666 15.5794 13.5827 15.5031C13.3987 15.4269 13.2316 15.3151 13.0909 15.1742L13.0455 15.1288C12.8669 14.9541 12.6401 14.837 12.3944 14.7924C12.1486 14.7479 11.8952 14.7779 11.6667 14.8788C11.4426 14.9748 11.2515 15.1343 11.1169 15.3375C10.9823 15.5408 10.9101 15.7789 10.9091 16.0227V16.1515C10.9091 16.5534 10.7495 16.9387 10.4653 17.2229C10.1812 17.507 9.79578 17.6667 9.39394 17.6667C8.9921 17.6667 8.60671 17.507 8.32257 17.2229C8.03842 16.9387 7.87879 16.5534 7.87879 16.1515V16.0833C7.87292 15.8326 7.79176 15.5894 7.64584 15.3854C7.49993 15.1814 7.29601 15.026 7.06061 14.9394C6.83211 14.8385 6.57864 14.8085 6.33289 14.853C6.08713 14.8976 5.86036 15.0147 5.68182 15.1894L5.63636 15.2348C5.49565 15.3757 5.32854 15.4875 5.14461 15.5637C4.96067 15.64 4.76351 15.6792 4.56439 15.6792C4.36528 15.6792 4.16812 15.64 3.98418 15.5637C3.80024 15.4875 3.63314 15.3757 3.49242 15.2348C3.35155 15.0941 3.23979 14.927 3.16355 14.7431C3.0873 14.5592 3.04805 14.362 3.04805 14.1629C3.04805 13.9638 3.0873 13.7666 3.16355 13.5827C3.23979 13.3987 3.35155 13.2316 3.49242 13.0909L3.53788 13.0455C3.71253 12.8669 3.82969 12.6401 3.87425 12.3944C3.91881 12.1486 3.88872 11.8952 3.78788 11.6667C3.69185 11.4426 3.53239 11.2515 3.32914 11.1169C3.12589 10.9823 2.88772 10.9101 2.64394 10.9091H2.51515C2.11331 10.9091 1.72792 10.7495 1.44378 10.4653C1.15963 10.1812 1 9.79578 1 9.39394C1 8.9921 1.15963 8.60671 1.44378 8.32257C1.72792 8.03842 2.11331 7.87879 2.51515 7.87879H2.58333C2.83409 7.87292 3.07728 7.79176 3.28129 7.64584C3.4853 7.49993 3.64069 7.29601 3.72727 7.06061C3.82812 6.83211 3.8582 6.57864 3.81364 6.33289C3.76908 6.08713 3.65192 5.86036 3.47727 5.68182L3.43182 5.63636C3.29094 5.49565 3.17919 5.32854 3.10294 5.14461C3.02669 4.96067 2.98744 4.76351 2.98744 4.56439C2.98744 4.36528 3.02669 4.16812 3.10294 3.98418C3.17919 3.80024 3.29094 3.63314 3.43182 3.49242C3.57253 3.35155 3.73964 3.23979 3.92358 3.16355C4.10751 3.0873 4.30467 3.04805 4.50379 3.04805C4.7029 3.04805 4.90006 3.0873 5.084 3.16355C5.26794 3.23979 5.43504 3.35155 5.57576 3.49242L5.62121 3.53788C5.79976 3.71253 6.02653 3.82969 6.27228 3.87425C6.51803 3.91881 6.7715 3.88872 7 3.78788H7.06061C7.28467 3.69185 7.47577 3.53239 7.61037 3.32914C7.74498 3.12589 7.81721 2.88772 7.81818 2.64394V2.51515C7.81818 2.11331 7.97781 1.72792 8.26196 1.44378C8.54611 1.15963 8.93149 1 9.33333 1C9.73518 1 10.1206 1.15963 10.4047 1.44378C10.6889 1.72792 10.8485 2.11331 10.8485 2.51515V2.58333C10.8495 2.82711 10.9217 3.06528 11.0563 3.26853C11.1909 3.47178 11.382 3.63124 11.6061 3.72727C11.8346 3.82812 12.088 3.8582 12.3338 3.81364C12.5795 3.76908 12.8063 3.65192 12.9848 3.47727L13.0303 3.43182C13.171 3.29094 13.3381 3.17919 13.5221 3.10294C13.706 3.02669 13.9032 2.98744 14.1023 2.98744C14.3014 2.98744 14.4985 3.02669 14.6825 3.10294C14.8664 3.17919 15.0335 3.29094 15.1742 3.43182C15.3151 3.57253 15.4269 3.73964 15.5031 3.92358C15.5794 4.10751 15.6186 4.30467 15.6186 4.50379C15.6186 4.7029 15.5794 4.90006 15.5031 5.084C15.4269 5.26794 15.3151 5.43504 15.1742 5.57576L15.1288 5.62121C14.9541 5.79976 14.837 6.02653 14.7924 6.27228C14.7479 6.51803 14.7779 6.7715 14.8788 7V7.06061C14.9748 7.28467 15.1343 7.47577 15.3375 7.61037C15.5408 7.74498 15.7789 7.81721 16.0227 7.81818H16.1515C16.5534 7.81818 16.9387 7.97781 17.2229 8.26196C17.507 8.54611 17.6667 8.93149 17.6667 9.33333C17.6667 9.73518 17.507 10.1206 17.2229 10.4047C16.9387 10.6889 16.5534 10.8485 16.1515 10.8485H16.0833C15.8396 10.8495 15.6014 10.9217 15.3981 11.0563C15.1949 11.1909 15.0354 11.382 14.9394 11.6061Z" stroke="#252525" stroke-width="2" stroke-linecap="round" stroke-linejoin="round"/>
</svg>
