<svg width="16" height="17" viewBox="0 0 16 17" fill="none" xmlns="http://www.w3.org/2000/svg">
<path d="M7.96439 11C5.32266 11 2.97339 12.2755 1.47772 14.255C1.15581 14.681 0.99486 14.894 1.00013 15.1819C1.00419 15.4043 1.14386 15.6849 1.31887 15.8222C1.54538 16 1.85928 16 2.48709 16H13.4417C14.0695 16 14.3834 16 14.6099 15.8222C14.7849 15.6849 14.9246 15.4043 14.9287 15.1819C14.9339 14.894 14.773 14.681 14.4511 14.255C12.9554 12.2755 10.6061 11 7.96439 11Z" stroke="white" stroke-width="2" stroke-linecap="round" stroke-linejoin="round"/>
<path d="M7.96439 8.5C10.0355 8.5 11.7144 6.82107 11.7144 4.75C11.7144 2.67893 10.0355 1 7.96439 1C5.89333 1 4.21439 2.67893 4.21439 4.75C4.21439 6.82107 5.89333 8.5 7.96439 8.5Z" stroke="white" stroke-width="2" stroke-linecap="round" stroke-linejoin="round"/>
</svg>
