<svg width="100" height="53" viewBox="0 0 100 53" fill="none" xmlns="http://www.w3.org/2000/svg">
<path d="M90.9956 36.2111H96.9495V49.6993H100V51.978H90.9956V49.6993H94.0461V38.4898H90.9956V36.2111ZM95.1119 28.3828C95.798 28.3828 96.3492 28.5911 96.7658 29.0076C97.1823 29.4241 97.3906 29.9754 97.3906 30.6615C97.3906 31.3475 97.1823 31.8988 96.7658 32.3153C96.3492 32.7319 95.798 32.9401 95.1119 32.9401C94.4259 32.9401 93.8746 32.7319 93.458 32.3153C93.066 31.8988 92.87 31.3475 92.87 30.6615C92.87 29.9754 93.066 29.4241 93.458 29.0076C93.8746 28.5911 94.4259 28.3828 95.1119 28.3828Z" fill="#005CDA"/>
<path d="M83.1897 50.9125C81.5971 51.9906 79.8698 52.5296 78.0076 52.5296C75.9495 52.5296 74.3814 52.1131 73.3033 51.28C72.2497 50.447 71.7107 49.2341 71.6862 47.6415C71.6372 44.4318 73.6708 42.8269 77.7871 42.8269L82.5282 42.8637C82.5282 41.2221 82.2219 40.0092 81.6094 39.2252C80.9968 38.4166 80.0658 38.0123 78.8162 38.0123C78.2281 38.0123 77.6524 38.0491 77.0888 38.1226C76.5253 38.1961 75.9985 38.3063 75.5084 38.4534L75.1409 40.4748L72.7888 40.0337L73.3768 36.6892C74.3079 36.3462 75.2144 36.0889 76.0965 35.9174C77.003 35.7459 77.8729 35.6602 78.7059 35.6602C80.9111 35.6602 82.5772 36.2604 83.7043 37.461C84.8314 38.6371 85.3949 40.389 85.3949 42.7167V49.1116L88.8864 50.251L88.1514 52.6031L83.1897 50.9125ZM77.8974 45.1423C76.8438 45.1423 76.0352 45.3506 75.4717 45.7671C74.9082 46.1837 74.6264 46.7962 74.6264 47.6048C74.6264 49.3199 75.8025 50.1774 78.1546 50.1774C79.8453 50.1774 81.3031 49.7119 82.5282 48.7808V45.1791L77.8974 45.1423Z" fill="#005CDA"/>
<path d="M50.0342 51.9759V49.6972H53.2317L58.0095 44.0005L52.7906 38.4876H50.0342V36.209H58.377V38.4876H56.3924L60.3249 42.6407L63.7429 38.4876H62.1258V36.209H69.4763V38.4876H66.7199L61.8685 44.2578L67.0507 49.6972H70.1379V51.9759H61.7583V49.6972H63.4121L59.5899 45.6912L56.2086 49.6972H57.8257V51.9759H50.0342Z" fill="#005CDA"/>
<path d="M30.0855 28.0508L35.6719 29.9619V42.8253H39.0164L41.5524 38.4885H39.6412V36.2099H47.3593V38.4885H44.272L41.2216 43.7442L44.7866 49.6981H47.9473V51.9768H43.0592L38.9062 45.104H35.6719V49.6981H37.3258V51.9768H29.718V49.6981H32.8052V31.5423L29.3137 30.3294L30.0855 28.0508Z" fill="#005CDA"/>
<path d="M27.211 50.1039C26.2309 50.937 25.2264 51.5496 24.1973 51.9416C23.1927 52.3336 22.0411 52.5296 20.7425 52.5296C19.0274 52.5296 17.5328 52.1988 16.2587 51.5373C14.9846 50.8513 13.9923 49.8834 13.2818 48.6338C12.5957 47.3597 12.2527 45.8406 12.2527 44.0765C12.2527 42.3859 12.5835 40.9158 13.245 39.6662C13.9066 38.3921 14.8376 37.412 16.0382 36.726C17.2633 36.0154 18.6721 35.6602 20.2648 35.6602C21.7594 35.6602 23.0335 35.9787 24.087 36.6157C25.1406 37.2528 25.9492 38.1471 26.5127 39.2987C27.1008 40.4257 27.3948 41.7733 27.3948 43.3415C27.3948 43.562 27.3825 43.7947 27.358 44.0398C27.358 44.2603 27.3458 44.493 27.3213 44.7381L15.0826 44.8116C15.1561 46.0612 15.4502 47.078 15.9647 47.862C16.5037 48.6461 17.1775 49.2219 17.9861 49.5894C18.8192 49.9569 19.7012 50.1407 20.6323 50.1407C21.7104 50.1407 22.6782 49.9937 23.5357 49.6997C24.3933 49.4056 25.1774 48.9646 25.8879 48.3766L27.211 50.1039ZM24.5648 42.4961C24.5403 41.1241 24.136 40.0215 23.352 39.1884C22.5924 38.3308 21.5756 37.9021 20.3015 37.9021C19.0029 37.9021 17.8636 38.3308 16.8835 39.1884C15.9034 40.0215 15.3154 41.1363 15.1194 42.5329L24.5648 42.4961Z" fill="#005CDA"/>
<path d="M8.23259 52.5271C7.35053 52.5271 6.50522 52.3556 5.69666 52.0126C4.9126 51.6696 4.27556 51.057 3.78552 50.175C3.29549 49.2929 3.05047 48.0678 3.05047 46.4997V38.4876H0V36.209H3.05047V32.644L5.84367 31.9824V36.209H10.4378V38.4876H5.84367V44.8826C5.84367 46.5242 6.00293 47.8473 6.32145 48.8519C6.63998 49.8565 7.33828 50.3587 8.41636 50.3587C9.17591 50.3587 10.0335 50.1382 10.989 49.6972L11.5403 51.7553C11.0258 51.9514 10.4868 52.1229 9.92321 52.2699C9.35967 52.4414 8.79613 52.5271 8.23259 52.5271Z" fill="#005CDA"/>
<path d="M40.5349 2.07812L52.2561 29.7968L57.1135 18.6155L68.0637 14.0662L40.5349 2.07812Z" stroke="#005CDA" stroke-width="2.16896" stroke-miterlimit="10"/>
</svg>
